<?xml version="1.0" encoding="UTF-8"?>
<!DOCTYPE svg PUBLIC "-//W3C//DTD SVG 1.1//EN" "http://www.w3.org/Graphics/SVG/1.1/DTD/svg11.dtd">
<svg xmlns="http://www.w3.org/2000/svg" version="1.1" width="3840px" height="2160px" style="shape-rendering:geometricPrecision; text-rendering:geometricPrecision; image-rendering:optimizeQuality; fill-rule:evenodd; clip-rule:evenodd" xmlns:xlink="http://www.w3.org/1999/xlink">
<g><path style="opacity:0.993" fill="#0c0c22" d="M 3283.5,568.5 C 3295.68,566.047 3304.85,570.047 3311,580.5C 3312.28,584.097 3312.61,587.764 3312,591.5C 3261.79,756.494 3214.63,922.327 3170.5,1089C 3166.49,1108.94 3162.32,1129.1 3158,1149.5C 3154.46,1166.68 3153.13,1184.01 3154,1201.5C 3156.42,1221.48 3167.59,1229.31 3187.5,1225C 3200.95,1221.28 3212.95,1214.95 3223.5,1206C 3244.03,1187.73 3261.86,1167.23 3277,1144.5C 3282.94,1134.89 3289.28,1125.56 3296,1116.5C 3297.79,1111.58 3300.13,1106.91 3303,1102.5C 3306.07,1033.99 3325.74,971.659 3362,915.5C 3384.51,883.329 3413.01,857.829 3447.5,839C 3483.77,820.732 3521.43,814.066 3560.5,819C 3598.59,826.534 3627.42,846.367 3647,878.5C 3665.45,913.032 3670.28,950.032 3661.5,989.5C 3658.58,1007 3652.08,1023.67 3642,1039.5C 3630.96,1057.04 3617.46,1072.54 3601.5,1086C 3561.33,1117.23 3515.66,1134.9 3464.5,1139C 3451.5,1139.33 3438.5,1139.67 3425.5,1140C 3417.69,1142.66 3413.35,1148.16 3412.5,1156.5C 3420.34,1181.17 3436.34,1198.34 3460.5,1208C 3467.25,1210.83 3473.75,1212.33 3480,1212.5C 3481.33,1213.17 3482.67,1213.83 3484,1214.5C 3485.78,1213.52 3487.45,1213.85 3489,1215.5C 3503.39,1215.44 3518.06,1215.44 3533,1215.5C 3557.27,1211.47 3580.6,1201.47 3603,1185.5C 3603.33,1185.83 3603.67,1186.17 3604,1186.5C 3617.11,1176.69 3629.94,1166.53 3642.5,1156C 3655.53,1143.3 3668.2,1130.3 3680.5,1117C 3690.77,1112.29 3699.6,1114.12 3707,1122.5C 3715.95,1135.78 3725.28,1148.78 3735,1161.5C 3737.45,1168.5 3736.79,1175.17 3733,1181.5C 3683.14,1245.04 3619.97,1284.87 3543.5,1301C 3495.5,1310.53 3448.84,1306.2 3403.5,1288C 3382.03,1277.35 3363.2,1263.18 3347,1245.5C 3340.47,1236.98 3333.97,1228.48 3327.5,1220C 3321.55,1216.26 3315.55,1215.93 3309.5,1219C 3299.75,1229.33 3290.58,1240.16 3282,1251.5C 3262.86,1273.66 3241.02,1292.49 3216.5,1308C 3183.75,1325.76 3149.25,1329.93 3113,1320.5C 3085.32,1309.39 3068.82,1289.72 3063.5,1261.5C 3059.75,1245.41 3057.75,1229.07 3057.5,1212.5C 3058.15,1188.98 3060.49,1165.64 3064.5,1142.5C 3064,1141.28 3063.67,1140.12 3063.5,1139C 3064.17,1138.33 3064.83,1137.67 3065.5,1137C 3065.06,1135.47 3064.72,1133.97 3064.5,1132.5C 3066.74,1124.71 3064.08,1118.21 3056.5,1113C 3053.76,1112.02 3050.93,1111.52 3048,1111.5C 3036.68,1113.76 3025.35,1115.76 3014,1117.5C 3002.75,1117.41 2991.42,1117.08 2980,1116.5C 2974.32,1117.51 2969.98,1120.51 2967,1125.5C 2952.53,1172.43 2931.37,1215.43 2903.5,1254.5C 2877.49,1290.11 2845.49,1317.28 2807.5,1336C 2791.99,1342.85 2776.49,1347.68 2761,1350.5C 2759.6,1349.95 2758.27,1349.62 2757,1349.5C 2715.92,1356.43 2677.42,1346.43 2641.5,1319.5C 2613.6,1294.35 2596.76,1263.35 2591,1226.5C 2587.01,1201.3 2585.68,1175.96 2587,1150.5C 2584.66,1141.83 2578.99,1137.16 2570,1136.5C 2544.07,1144.2 2517.57,1147.36 2490.5,1146C 2482.36,1149.98 2478.36,1156.31 2478.5,1165C 2463.47,1209.89 2441.64,1251.39 2413,1289.5C 2389.31,1319.91 2360.48,1344.08 2326.5,1362C 2282.35,1382.44 2238.02,1384.78 2193.5,1369C 2150.24,1350 2122.91,1318.5 2111.5,1274.5C 2104.98,1251.99 2101.64,1228.99 2101.5,1205.5C 2102.44,1196.18 2102.61,1186.84 2102,1177.5C 2099.03,1169.94 2093.53,1165.6 2085.5,1164.5C 2073.59,1167.45 2061.59,1169.95 2049.5,1172C 2037.01,1173.65 2024.51,1173.82 2012,1172.5C 2004.85,1173.07 1999.52,1176.4 1996,1182.5C 1977.07,1249.74 1941.91,1307.91 1890.5,1357C 1830.9,1406.59 1769.57,1419.59 1706.5,1396C 1670.88,1380.88 1645.88,1355.38 1631.5,1319.5C 1623.55,1310.27 1614.55,1309.1 1604.5,1316C 1580.83,1350.33 1551.83,1379.33 1517.5,1403C 1503.29,1410.94 1488.29,1416.94 1472.5,1421C 1448.94,1425.23 1425.94,1423.23 1403.5,1415C 1388.16,1408 1376.33,1397.16 1368,1382.5C 1364.09,1374.8 1361.09,1367.47 1359,1360.5C 1351.99,1352.37 1343.83,1350.87 1334.5,1356C 1313.18,1381.79 1288.51,1403.63 1260.5,1421.5C 1246.87,1428.97 1233.04,1433.97 1219,1436.5C 1218,1436.17 1217,1435.83 1216,1435.5C 1164.35,1441.56 1128.68,1419.23 1109,1368.5C 1103.87,1351.75 1101.37,1335.08 1101.5,1318.5C 1104.36,1272.86 1114.02,1228.36 1130.5,1185C 1130.17,1184.67 1129.83,1184.33 1129.5,1184C 1140.42,1153.87 1151.26,1124.04 1162,1094.5C 1163.78,1083.47 1159.94,1075.97 1150.5,1072C 1127.55,1070.58 1104.71,1068.08 1082,1064.5C 1074.06,1064.64 1068.4,1068.3 1065,1075.5C 1039.56,1167.43 1006.22,1257.1 965,1344.5C 956.411,1360.68 948.078,1377.01 940,1393.5C 931.333,1408.17 922.667,1422.83 914,1437.5C 907.928,1443.64 900.761,1445.47 892.5,1443C 877.222,1432.72 862.222,1422.05 847.5,1411C 844.453,1407.7 842.453,1404.2 841.5,1400.5C 841.969,1397.22 842.136,1393.89 842,1390.5C 876.756,1333.18 905.589,1274.01 928.5,1213C 963.155,1128.31 988.655,1040.48 1005,949.5C 1006.86,940.973 1012.03,935.806 1020.5,934C 1038,932.872 1055.5,931.706 1073,930.5C 1083.74,930.889 1090.24,936.056 1092.5,946C 1093.17,948.667 1093.83,951.333 1094.5,954C 1091.33,961.276 1093.33,967.942 1100.5,974C 1102.72,975.275 1105.05,976.275 1107.5,977C 1126.47,979.42 1145.47,981.254 1164.5,982.5C 1171.05,982.291 1177.55,981.958 1184,981.5C 1186,982.167 1188,982.833 1190,983.5C 1212,982.167 1234,982.167 1256,983.5C 1257,982.833 1258,982.167 1259,981.5C 1263,981.5 1267,981.5 1271,981.5C 1284.49,984.037 1290.49,992.37 1289,1006.5C 1271.32,1053.1 1253.82,1101.6 1236.5,1152C 1226.7,1184.1 1217.37,1217.1 1208.5,1251C 1209.7,1252.7 1209.37,1254.2 1207.5,1255.5C 1208.11,1257.64 1207.77,1259.81 1206.5,1262C 1206.96,1262.41 1207.29,1262.91 1207.5,1263.5C 1202.9,1281.32 1202.57,1299.15 1206.5,1317C 1209.38,1329.45 1217.88,1336.28 1232,1337.5C 1241.6,1336.45 1250.43,1333.28 1258.5,1328C 1273.28,1316.44 1286.78,1303.6 1299,1289.5C 1326.16,1254.53 1349.83,1217.2 1370,1177.5C 1387.97,1103.42 1408.47,1030.09 1431.5,957.5C 1435.03,952.809 1439.69,949.975 1445.5,949C 1468.48,947.209 1491.48,946.209 1514.5,946C 1521,947.833 1525.17,952 1527,958.5C 1527.33,963.475 1527.5,968.308 1527.5,973C 1517.52,1004.45 1507.19,1036.62 1496.5,1069.5C 1496.71,1070.09 1497.04,1070.59 1497.5,1071C 1478.96,1126.33 1464.46,1182.5 1454,1239.5C 1450.82,1257.71 1449.82,1276.05 1451,1294.5C 1455.7,1321.93 1470.86,1330.1 1496.5,1319C 1500.33,1317.25 1503.99,1315.25 1507.5,1313C 1523.58,1301.25 1538.08,1287.75 1551,1272.5C 1579.58,1236.37 1603.92,1197.37 1624,1155.5C 1657.99,1016.82 1695.49,879.65 1736.5,744C 1735.54,742.853 1735.88,741.853 1737.5,741C 1736.27,739.413 1736.61,738.079 1738.5,737C 1738.17,736.667 1737.83,736.333 1737.5,736C 1744.41,711.613 1751.91,687.446 1760,663.5C 1762.2,660.96 1764.7,658.793 1767.5,657C 1791.76,654.318 1816.09,652.651 1840.5,652C 1851.07,654.447 1856.73,661.114 1857.5,672C 1843.17,720.654 1827.84,768.987 1811.5,817C 1811.96,817.414 1812.29,817.914 1812.5,818.5C 1802.46,849.029 1792.8,878.862 1783.5,908C 1783.83,908.333 1784.17,908.667 1784.5,909C 1779.2,918.495 1778.37,928.328 1782,938.5C 1787,945.023 1793.5,947.19 1801.5,945C 1826.62,927.845 1854.29,917.179 1884.5,913C 1927.26,910.299 1960.76,926.465 1985,961.5C 2005.99,996.47 2015.49,1034.3 2013.5,1075C 2015.9,1081.74 2020.57,1086.07 2027.5,1088C 2064.33,1091.49 2096.33,1081.49 2123.5,1058C 2125.38,1055.75 2126.88,1053.25 2128,1050.5C 2164.73,911.857 2203.4,774.191 2244,637.5C 2247.19,632.487 2251.69,629.32 2257.5,628C 2279.21,626.713 2300.88,625.213 2322.5,623.5C 2336.21,625.704 2342.71,633.704 2342,647.5C 2316.55,729.22 2290.88,811.553 2265,894.5C 2263.27,907.763 2268.93,915.763 2282,918.5C 2296.24,910.631 2310.74,903.131 2325.5,896C 2342.97,888.972 2361.14,885.138 2380,884.5C 2423.93,886.156 2455.77,905.989 2475.5,944C 2487.12,965.227 2494.29,988.393 2497,1013.5C 2498,1023.48 2498.67,1033.48 2499,1043.5C 2499.42,1051.91 2503.59,1057.41 2511.5,1060C 2549.11,1063.91 2581.95,1053.41 2610,1028.5C 2611,1026.5 2612,1024.5 2613,1022.5C 2645.48,898.695 2680.31,774.695 2717.5,650.5C 2717.29,649.914 2716.96,649.414 2716.5,649C 2717.5,647.333 2718.5,645.667 2719.5,644C 2721.37,632.346 2724.54,620.846 2729,609.5C 2732.42,604.206 2737.25,601.039 2743.5,600C 2767.14,598.138 2790.81,597.138 2814.5,597C 2822.64,600.429 2826.97,606.595 2827.5,615.5C 2827.07,619.512 2826.07,623.346 2824.5,627C 2815.86,656.609 2806.52,686.275 2796.5,716C 2788.01,745.37 2778.34,775.87 2767.5,807.5C 2767.71,808.086 2768.04,808.586 2768.5,809C 2766.83,812.667 2765.17,816.333 2763.5,820C 2763.96,820.414 2764.29,820.914 2764.5,821.5C 2759.56,836.475 2754.73,851.475 2750,866.5C 2748.02,882.177 2754.85,890.01 2770.5,890C 2783.44,881.612 2796.94,874.112 2811,867.5C 2819.52,865.119 2828.36,862.619 2837.5,860C 2871.78,852.388 2903.11,858.721 2931.5,879C 2937.66,886.162 2944.16,892.996 2951,899.5C 2968.14,925.219 2978.47,953.885 2982,985.5C 2982.95,995.481 2983.61,1005.48 2984,1015.5C 2985.11,1023.28 2989.28,1028.78 2996.5,1032C 3032.05,1036.03 3063.72,1026.86 3091.5,1004.5C 3092.86,1002.97 3094.03,1001.3 3095,999.5C 3132.62,858.914 3172.29,719.581 3214,581.5C 3216.6,577.61 3220.1,574.777 3224.5,573C 3244.32,571.474 3263.98,569.974 3283.5,568.5 Z M 3517.5,905.5 C 3549.24,902.771 3567.4,917.104 3572,948.5C 3573.55,969.486 3568.05,988.319 3555.5,1005C 3547.55,1016.63 3537.55,1026.96 3525.5,1036C 3494.15,1056.18 3460.49,1067.01 3424.5,1068.5C 3416.32,1067.15 3411.15,1062.49 3409,1054.5C 3410.32,1035.53 3414.66,1017.2 3422,999.5C 3433.77,967.757 3452.93,941.591 3479.5,921C 3491.43,913.86 3504.1,908.694 3517.5,905.5 Z M 2820.5,949.5 C 2850.22,949.621 2869.39,963.954 2878,992.5C 2881.65,1006.95 2882.98,1021.62 2882,1036.5C 2877.46,1106.5 2852.46,1167.83 2807,1220.5C 2795.49,1232.01 2782.33,1241.17 2767.5,1248C 2725.55,1260.43 2699.38,1245.27 2689,1202.5C 2683.54,1153.08 2690.71,1105.58 2710.5,1060C 2713.28,1050.73 2717.11,1041.56 2722,1032.5C 2727.67,1024.49 2732.84,1016.16 2737.5,1007.5C 2746.97,995.53 2757.3,984.363 2768.5,974C 2778.88,965.807 2790.21,959.141 2802.5,954C 2808.55,952.153 2814.55,950.653 2820.5,949.5 Z M 2333.5,977.5 C 2365.87,976.694 2386.04,992.028 2394,1023.5C 2398.98,1053.73 2397.65,1083.73 2390,1113.5C 2379.74,1160.03 2359.74,1202.03 2330,1239.5C 2317.59,1253.77 2303.09,1265.27 2286.5,1274C 2266.37,1283.27 2246.7,1282.61 2227.5,1272C 2221.7,1268.31 2218.03,1263.98 2216.5,1259C 2208.89,1248.85 2204.39,1237.35 2203,1224.5C 2199.48,1183.5 2204.65,1144 2218.5,1106C 2229.58,1066.76 2250.25,1032.76 2280.5,1004C 2291.05,995.789 2302.39,988.789 2314.5,983C 2320.83,980.673 2327.16,978.84 2333.5,977.5 Z M 1846.5,1005.5 C 1878.01,1003.98 1898.68,1018.32 1908.5,1048.5C 1907.53,1049.96 1907.86,1051.3 1909.5,1052.5C 1914.76,1095.53 1909.26,1138.53 1893,1181.5C 1881.55,1213.42 1865.22,1242.42 1844,1268.5C 1837.83,1273.33 1832.33,1278.83 1827.5,1285C 1813.97,1296.85 1798.31,1304.52 1780.5,1308C 1753.19,1310.77 1734.36,1299.61 1724,1274.5C 1716.94,1253.72 1714.6,1232.38 1717,1210.5C 1720.71,1157.42 1738.04,1107.42 1769,1060.5C 1784.24,1039.58 1803.41,1023.42 1826.5,1012C 1833.12,1009.29 1839.79,1007.13 1846.5,1005.5 Z"/></g>
<g><path style="opacity:0.993" fill="#0c0c22" d="M 500.5,635.5 C 507.684,636.684 514.851,636.684 522,635.5C 524,636.167 526,636.833 528,637.5C 533,637.167 538,636.833 543,636.5C 544.333,637.167 545.667,637.833 547,638.5C 549.333,638.167 551.667,637.833 554,637.5C 699.91,655.839 797.91,733.506 848,870.5C 869.097,936.351 876.431,1005.35 870,1077.5C 860.078,1192 822.078,1295 756,1386.5C 661.735,1512.01 537.235,1579.51 382.5,1589C 315.833,1592.3 251.833,1585.3 190.5,1568C 171.099,1561.88 152.432,1554.88 134.5,1547C 126.037,1542.6 117.704,1537.93 109.5,1533C 103.086,1525.29 101.92,1516.79 106,1507.5C 115.993,1486.87 125.993,1466.2 136,1445.5C 142.372,1438.04 150.205,1435.88 159.5,1439C 181.166,1451.16 203.832,1461.16 227.5,1469C 236.498,1470.09 242.998,1466.59 247,1458.5C 261.187,1402.14 276.354,1345.14 292.5,1287.5C 292.694,1285.74 292.694,1283.9 292.5,1282C 302.586,1247.66 311.92,1213 320.5,1178C 345.381,1087.01 370.881,995.846 397,904.5C 399.352,897.143 404.186,891.977 411.5,889C 436.828,887.196 462.162,885.863 487.5,885C 497.027,887.682 502.361,894.015 503.5,904C 468.318,1026.38 433.652,1150.55 399.5,1276.5C 390.93,1311.92 381.597,1348.08 371.5,1385C 365.691,1411.41 358.858,1438.91 351,1467.5C 349.637,1482.14 356.303,1490.14 371,1491.5C 442.191,1490.51 507.025,1470.35 565.5,1431C 601.175,1405.99 632.342,1376.16 659,1341.5C 737.502,1234.39 771.502,1115.39 761,984.5C 757.348,933.204 741.348,884.871 713,839.5C 676.758,787.189 627.092,755.522 564,744.5C 562.433,742.832 560.766,742.498 559,743.5C 505.655,736.08 454.821,739.914 406.5,755C 354.998,771.491 308.498,796.658 267,830.5C 266.667,830.167 266.333,829.833 266,829.5C 259.957,832.791 254.124,832.624 248.5,829C 246.333,826.833 244.167,824.667 242,822.5C 230.137,802.688 217.97,782.521 205.5,762C 206.717,759.989 206.384,757.989 204.5,756C 206.394,754.921 206.727,753.587 205.5,752C 206.958,749.943 207.792,747.777 208,745.5C 214.182,739.654 220.682,734.154 227.5,729C 286.084,688.556 350.417,660.89 420.5,646C 434.961,643.229 449.461,640.729 464,638.5C 470.073,638.353 475.74,638.353 481,638.5C 481.667,637.833 482.333,637.167 483,636.5C 487.333,636.833 491.667,637.167 496,637.5C 497.622,636.901 499.122,636.234 500.5,635.5 Z"/></g>
<g><path style="opacity:0.987" fill="#0c0c22" d="M 1524.5,726.5 C 1558.05,726.958 1577.72,743.125 1583.5,775C 1583.5,780.333 1583.5,785.667 1583.5,791C 1578.93,824.017 1562.26,849.684 1533.5,868C 1517.43,876.373 1501.1,878.04 1484.5,873C 1465.97,864.804 1455.47,850.637 1453,830.5C 1450.47,797.412 1460.97,769.245 1484.5,746C 1496.22,735.973 1509.55,729.473 1524.5,726.5 Z"/></g>
</svg>
